<?xml version="1.0"?>
<svg width="40" height="40" xmlns="http://www.w3.org/2000/svg" xmlns:svg="http://www.w3.org/2000/svg">
 <g class="layer">
  <title>Layer 1</title>
  <g id="svg_10">
   <path d="m25.69,20.69c0,0 9.38,-0.19 9.38,-0.19c0,0 2.94,1.69 3.63,1.69c0.69,0 0.44,7.75 0.44,7.75c0,0 -13.38,0.25 -13.38,0.25c0,0 -0.06,-9.5 -0.06,-9.5z" fill="#e44848" id="svg_14" stroke-width="0"/>
   <path d="m1.06,8.75c0.5,-0.69 12.31,-0.63 12.31,-0.63c0,0 2,-1.56 2,-1.56c0,0 17,0.06 17,0.06c0,0 3.19,4.19 3.19,4.19c0,0 -9.69,0.81 -9.69,0.81c0,0 -0.25,18.44 -0.25,18.44c0,0 -24.94,0 -24.94,0c0,0 -0.13,-20.63 0.38,-21.31zl0,0z" fill="#e5e5e5" id="svg_13" stroke="#000000" stroke-width="0"/>
   <path d="m26.19,13.94l5.69,0l2.75,6.31l-8.31,0l-0.13,-6.31z" fill="#b5e1fc" id="svg_7"/>
   <defs>
    <radialGradient id="grad1" cx="50%" cy="50%" r="50%" fx="50%" fy="50%">
      <stop offset="0%" style="stop-color:#FFC531;stop-opacity:1" />
      <stop offset="100%" style="stop-color:#000000;stop-opacity:1" />
    </radialGradient>
  </defs>
   <circle cx="10.25" cy="30.25" fill="url(#grad1)" id="svg_8" r="2.69"/>
   <circle cx="32.13" cy="30.31" fill="url(#grad1)" id="svg_9" r="2.69"/>
   <rect fill="#b5e1fc" height="4.38" id="svg_6" width="8.5" x="4.44" y="13.44"/>
   <path d="m2.28,7.57l10.86,0c0.09,0 0.18,-0.03 0.24,-0.09l1.05,-1.02c0.3,-0.3 0.7,-0.46 1.13,-0.46l16.47,0c0.76,0 1.47,0.37 1.9,0.99l1.97,2.89c0.28,0.41 0.31,0.94 0.07,1.37c-0.24,0.43 -0.7,0.7 -1.2,0.7l-8.49,0l0,0.84l4.35,0c1.15,0 2.18,0.67 2.64,1.7l2.54,5.82l2.23,0.87c1.19,0.47 1.96,1.57 1.96,2.82l0,5.39c0,0.81 -0.67,1.46 -1.49,1.46l-2.6,0c-0.3,1.78 -1.89,3.15 -3.8,3.15c-1.92,0 -3.51,-1.37 -3.81,-3.15l-14.18,0c-0.3,1.78 -1.89,3.15 -3.8,3.15c-1.92,0 -3.51,-1.37 -3.81,-3.15l-5.18,0c-0.73,0 -1.33,-0.58 -1.33,-1.3l0,-19.75c0,-1.23 1.02,-2.23 2.28,-2.23zm29.83,25.2c1.43,0 2.59,-1.14 2.59,-2.53c0,-1.4 -1.16,-2.54 -2.59,-2.54c-1.44,0 -2.6,1.15 -2.6,2.54c0,1.39 1.16,2.53 2.6,2.53zm-5.83,-3.15l2.02,0c0,-0.03 0.01,-0.06 0.02,-0.09c0,-0.02 0,-0.04 0.01,-0.06c0.01,-0.05 0.02,-0.1 0.03,-0.15c0,-0.01 0.01,-0.02 0.01,-0.03c0.01,-0.05 0.03,-0.11 0.05,-0.17c0,-0.01 0.01,-0.03 0.02,-0.05c0.01,-0.04 0.02,-0.07 0.04,-0.11c0,-0.02 0.01,-0.04 0.02,-0.07c0.01,-0.03 0.03,-0.06 0.04,-0.1c0.01,-0.02 0.02,-0.04 0.03,-0.06c0.02,-0.03 0.03,-0.07 0.04,-0.1c0.02,-0.02 0.03,-0.04 0.04,-0.06c0.01,-0.03 0.03,-0.06 0.05,-0.09c0.01,-0.02 0.02,-0.05 0.03,-0.07c0.02,-0.03 0.04,-0.06 0.05,-0.09c0.02,-0.02 0.03,-0.04 0.04,-0.06c0.02,-0.03 0.04,-0.06 0.06,-0.09c0.01,-0.02 0.02,-0.03 0.04,-0.05c0.02,-0.03 0.04,-0.06 0.07,-0.1c0.01,-0.01 0.02,-0.03 0.03,-0.04c0.03,-0.04 0.06,-0.08 0.1,-0.12c0,-0.01 0.01,-0.01 0.01,-0.02c0.04,-0.04 0.08,-0.09 0.12,-0.13c0.01,-0.01 0.02,-0.02 0.03,-0.04c0.03,-0.03 0.06,-0.06 0.09,-0.08c0.01,-0.02 0.03,-0.03 0.05,-0.05c0.02,-0.02 0.05,-0.05 0.08,-0.07c0.01,-0.02 0.03,-0.04 0.05,-0.05c0.03,-0.02 0.05,-0.05 0.08,-0.07l0.06,-0.04c0.02,-0.02 0.05,-0.05 0.08,-0.07c0.02,-0.01 0.04,-0.03 0.06,-0.04c0.02,-0.02 0.05,-0.04 0.08,-0.06c0.02,-0.01 0.04,-0.03 0.06,-0.04c0.03,-0.02 0.06,-0.04 0.09,-0.06c0.02,-0.01 0.04,-0.02 0.06,-0.03c0.04,-0.02 0.07,-0.04 0.1,-0.06c0.02,-0.01 0.04,-0.02 0.06,-0.03c0.05,-0.02 0.09,-0.05 0.14,-0.07c0.01,0 0.01,-0.01 0.02,-0.01c0.05,-0.02 0.1,-0.05 0.16,-0.07c0.02,-0.01 0.03,-0.01 0.05,-0.02c0.04,-0.02 0.08,-0.03 0.11,-0.04c0.03,-0.01 0.05,-0.02 0.07,-0.03c0.04,-0.01 0.07,-0.02 0.11,-0.03c0.02,-0.01 0.04,-0.02 0.07,-0.02c0.03,-0.01 0.07,-0.02 0.1,-0.03c0.02,-0.01 0.05,-0.01 0.07,-0.02c0.04,-0.01 0.07,-0.02 0.11,-0.02c0.02,-0.01 0.05,-0.01 0.07,-0.02c0.04,0 0.07,-0.01 0.11,-0.02c0.03,0 0.05,-0.01 0.08,-0.01c0.03,0 0.07,-0.01 0.11,-0.01c0.02,-0.01 0.05,-0.01 0.07,-0.01c0.04,0 0.08,-0.01 0.13,-0.01c0.02,0 0.04,0 0.06,0c0.06,-0.01 0.12,-0.01 0.19,-0.01c0.06,0 0.12,0 0.19,0.01c0.02,0 0.04,0 0.06,0c0.04,0 0.08,0.01 0.12,0.01c0.03,0 0.05,0 0.07,0.01c0.04,0 0.08,0.01 0.12,0.01c0.02,0 0.05,0.01 0.07,0.01c0.04,0.01 0.07,0.02 0.11,0.02c0.02,0.01 0.05,0.01 0.07,0.02c0.04,0 0.07,0.01 0.11,0.02c0.02,0.01 0.05,0.01 0.07,0.02c0.04,0.01 0.07,0.02 0.1,0.03c0.03,0 0.05,0.01 0.08,0.02c0.03,0.01 0.07,0.02 0.1,0.03c0.02,0.01 0.05,0.02 0.07,0.03c0.04,0.01 0.07,0.02 0.11,0.04c0.02,0.01 0.04,0.01 0.05,0.02c0.06,0.02 0.11,0.05 0.17,0.07c0,0 0,0.01 0.01,0.01c0.05,0.02 0.1,0.05 0.15,0.07c0.01,0.01 0.03,0.02 0.05,0.03c0.03,0.02 0.07,0.04 0.1,0.06c0.02,0.01 0.04,0.02 0.06,0.03c0.03,0.02 0.06,0.04 0.09,0.06c0.02,0.01 0.04,0.03 0.06,0.04c0.03,0.02 0.06,0.04 0.08,0.06c0.03,0.01 0.05,0.03 0.06,0.04c0.03,0.02 0.06,0.05 0.09,0.07l0.05,0.04c0.03,0.02 0.06,0.05 0.08,0.07c0.02,0.01 0.04,0.03 0.06,0.05c0.02,0.02 0.05,0.05 0.08,0.07c0.01,0.02 0.03,0.03 0.04,0.05c0.03,0.02 0.06,0.05 0.09,0.08c0.01,0.02 0.02,0.03 0.04,0.04c0.04,0.04 0.07,0.09 0.11,0.13c0.01,0.01 0.01,0.01 0.02,0.02c0.03,0.04 0.06,0.08 0.09,0.12c0.01,0.01 0.02,0.03 0.04,0.04c0.02,0.04 0.04,0.07 0.06,0.1c0.02,0.02 0.03,0.03 0.04,0.05c0.02,0.03 0.04,0.06 0.06,0.09c0.01,0.02 0.03,0.04 0.04,0.06c0.02,0.03 0.03,0.06 0.05,0.09c0.01,0.02 0.02,0.05 0.04,0.07c0.01,0.03 0.03,0.06 0.04,0.09c0.02,0.02 0.03,0.04 0.04,0.06c0.01,0.03 0.03,0.07 0.04,0.1c0.01,0.02 0.02,0.04 0.03,0.06c0.01,0.04 0.03,0.07 0.04,0.1c0.01,0.03 0.02,0.05 0.03,0.07c0.01,0.04 0.02,0.07 0.04,0.11c0,0.02 0.01,0.04 0.01,0.05c0.02,0.06 0.04,0.12 0.05,0.17c0.01,0.01 0.01,0.02 0.01,0.03c0.01,0.05 0.02,0.1 0.03,0.15c0.01,0.02 0.01,0.04 0.02,0.06c0,0.03 0.01,0.06 0.01,0.09l2.6,0c0.12,0 0.23,-0.1 0.23,-0.23l0,-2.57l-0.98,0l0,-1.23l0.98,0l0,-1.59c0,-0.74 -0.46,-1.4 -1.17,-1.68l-2.36,-0.92l-8.93,0l0,8.22zm0,-9.45l8.1,0l-2.27,-5.19c-0.26,-0.58 -0.84,-0.96 -1.48,-0.96l-4.35,0l0,6.15zm-15.96,12.6c1.43,0 2.59,-1.14 2.59,-2.53c0,-1.4 -1.16,-2.54 -2.59,-2.54c-0.05,0 -0.09,0 -0.14,0c-1.19,0.06 -2.18,0.91 -2.41,2.03c-0.01,0.04 -0.02,0.08 -0.02,0.12c-0.02,0.08 -0.02,0.17 -0.03,0.26c0,0.04 0,0.08 0,0.13c0,1.39 1.16,2.53 2.6,2.53zm-9.06,-7.18l0.98,0l0,1.23l-0.98,0l0,2.73c0,0.04 0.03,0.07 0.07,0.07l5.18,0c0,-0.03 0.01,-0.06 0.02,-0.09c0,-0.02 0,-0.04 0.01,-0.06c0.01,-0.05 0.02,-0.1 0.03,-0.14c0,-0.01 0.01,-0.03 0.01,-0.04c0.01,-0.05 0.03,-0.11 0.05,-0.17c0,-0.01 0.01,-0.03 0.02,-0.05c0.01,-0.04 0.02,-0.08 0.04,-0.11c0,-0.02 0.01,-0.05 0.02,-0.07c0.01,-0.03 0.03,-0.06 0.04,-0.1c0.01,-0.02 0.02,-0.04 0.03,-0.06c0.01,-0.03 0.03,-0.07 0.04,-0.1c0.01,-0.02 0.03,-0.04 0.04,-0.06c0.01,-0.03 0.03,-0.06 0.04,-0.09c0.02,-0.02 0.03,-0.05 0.04,-0.07c0.02,-0.03 0.04,-0.06 0.05,-0.09c0.02,-0.02 0.03,-0.04 0.04,-0.06c0.02,-0.03 0.04,-0.06 0.06,-0.08c0.01,-0.02 0.02,-0.04 0.04,-0.06c0.02,-0.03 0.04,-0.06 0.06,-0.09c0.02,-0.02 0.03,-0.04 0.04,-0.05c0.03,-0.04 0.06,-0.08 0.09,-0.12c0.01,-0.01 0.01,-0.01 0.02,-0.02c0.04,-0.04 0.08,-0.09 0.12,-0.13c0.01,-0.01 0.02,-0.03 0.03,-0.04c0.03,-0.03 0.06,-0.06 0.09,-0.08c0.01,-0.02 0.03,-0.03 0.05,-0.05c0.02,-0.03 0.05,-0.05 0.07,-0.07c0.02,-0.02 0.04,-0.04 0.06,-0.05c0.02,-0.02 0.05,-0.05 0.08,-0.07c0.02,-0.01 0.04,-0.03 0.06,-0.04c0.02,-0.02 0.05,-0.05 0.08,-0.07c0.02,-0.01 0.04,-0.03 0.06,-0.04c0.02,-0.02 0.05,-0.04 0.08,-0.06c0.02,-0.01 0.04,-0.03 0.06,-0.04c0.03,-0.02 0.06,-0.04 0.09,-0.06c0.02,-0.01 0.04,-0.02 0.06,-0.03c0.04,-0.02 0.07,-0.04 0.1,-0.06c0.02,-0.01 0.04,-0.02 0.06,-0.03c0.04,-0.02 0.09,-0.05 0.14,-0.07c0.01,0 0.01,-0.01 0.01,-0.01c0.06,-0.02 0.11,-0.05 0.17,-0.07c0.01,-0.01 0.03,-0.01 0.05,-0.02c0.04,-0.02 0.08,-0.03 0.11,-0.04c0.03,-0.01 0.05,-0.02 0.07,-0.03c0.03,-0.01 0.07,-0.02 0.1,-0.03c0.03,-0.01 0.05,-0.02 0.08,-0.02c0.03,-0.01 0.06,-0.02 0.1,-0.03c0.02,-0.01 0.05,-0.01 0.07,-0.02c0.04,-0.01 0.07,-0.02 0.11,-0.02c0.02,-0.01 0.05,-0.01 0.07,-0.02c0.04,0 0.07,-0.01 0.11,-0.02c0.02,0 0.05,-0.01 0.08,-0.01c0.03,0 0.07,-0.01 0.11,-0.01c0.02,-0.01 0.05,-0.01 0.07,-0.01c0.04,0 0.08,-0.01 0.12,-0.01c0.03,0 0.05,0 0.07,0c0.06,-0.01 0.12,-0.01 0.19,-0.01c0.06,0 0.12,0 0.18,0.01c0.03,0 0.05,0 0.07,0c0.04,0 0.08,0.01 0.12,0.01c0.03,0 0.05,0 0.07,0.01c0.04,0 0.08,0.01 0.12,0.01c0.02,0 0.05,0.01 0.07,0.01c0.04,0.01 0.07,0.02 0.11,0.02c0.02,0.01 0.05,0.01 0.07,0.02c0.04,0 0.07,0.01 0.11,0.02c0.02,0.01 0.05,0.01 0.07,0.02c0.04,0.01 0.07,0.02 0.1,0.03c0.03,0 0.05,0.01 0.08,0.02c0.03,0.01 0.07,0.02 0.1,0.03c0.02,0.01 0.04,0.02 0.07,0.03c0.03,0.01 0.07,0.02 0.11,0.04c0.02,0.01 0.04,0.01 0.05,0.02c0.06,0.02 0.11,0.05 0.17,0.07c0,0 0,0.01 0.01,0.01c0.05,0.02 0.1,0.05 0.14,0.07c0.02,0.01 0.04,0.02 0.06,0.03c0.03,0.02 0.07,0.04 0.1,0.06c0.02,0.01 0.04,0.02 0.06,0.03c0.03,0.02 0.06,0.04 0.09,0.06c0.02,0.01 0.04,0.03 0.06,0.04c0.03,0.02 0.06,0.04 0.08,0.06c0.02,0.01 0.04,0.03 0.06,0.04c0.03,0.02 0.06,0.05 0.08,0.07c0.02,0.01 0.04,0.03 0.06,0.04c0.03,0.02 0.06,0.05 0.08,0.07c0.02,0.01 0.04,0.03 0.06,0.05c0.02,0.02 0.05,0.05 0.07,0.07c0.02,0.02 0.04,0.03 0.05,0.05c0.03,0.02 0.06,0.05 0.09,0.08c0.01,0.01 0.02,0.03 0.04,0.04c0.03,0.04 0.07,0.09 0.11,0.13c0.01,0.01 0.01,0.01 0.02,0.02c0.03,0.04 0.06,0.08 0.09,0.12c0.01,0.01 0.02,0.03 0.04,0.04c0.02,0.04 0.04,0.07 0.06,0.1c0.02,0.02 0.03,0.04 0.04,0.05c0.02,0.03 0.04,0.06 0.06,0.09c0.01,0.02 0.03,0.04 0.04,0.06c0.02,0.03 0.03,0.06 0.05,0.09c0.01,0.02 0.02,0.05 0.04,0.07c0.01,0.03 0.03,0.06 0.04,0.09c0.01,0.02 0.03,0.04 0.04,0.06c0.01,0.03 0.03,0.07 0.04,0.1c0.01,0.02 0.02,0.04 0.03,0.06c0.01,0.04 0.03,0.07 0.04,0.1c0.01,0.03 0.02,0.05 0.02,0.07c0.02,0.04 0.03,0.08 0.05,0.12c0,0.01 0.01,0.03 0.01,0.04c0.02,0.06 0.04,0.12 0.05,0.17c0,0.01 0.01,0.02 0.01,0.03c0.01,0.05 0.02,0.1 0.03,0.15c0.01,0.02 0.01,0.04 0.01,0.06c0.01,0.03 0.02,0.06 0.02,0.09l10.9,0l0,-18.28c0,-0.34 0.28,-0.62 0.63,-0.62l9.12,0c0.01,0 0.06,0 0.09,-0.05c0.03,-0.05 0,-0.09 -0.01,-0.11l-1.97,-2.88c-0.19,-0.28 -0.51,-0.45 -0.85,-0.45l-16.47,0c-0.09,0 -0.18,0.04 -0.24,0.1l-1.05,1.02c-0.3,0.29 -0.7,0.45 -1.13,0.45l-10.86,0c-0.56,0 -1.02,0.45 -1.02,1l0,15.79z" fill="#101828" id="svg_1"/>
   <path d="m17.6,12.3l3.99,0c0.81,0 1.46,0.64 1.46,1.42l0,13.17c0,0.34 -0.28,0.61 -0.63,0.61l-5.65,0c-0.35,0 -0.63,-0.27 -0.63,-0.61l0,-13.17c0,-0.78 0.66,-1.42 1.46,-1.42zm-0.2,13.97l4.39,0l0,-7.23l-4.39,0l0,7.23zm0,-8.46l4.39,0l0,-4.09c0,-0.1 -0.09,-0.19 -0.2,-0.19l-3.99,0c-0.11,0 -0.2,0.09 -0.2,0.19l0,4.09l0,0zm-12.56,-5.51l7.72,0c0.89,0 1.61,0.71 1.61,1.58l0,3.58c0,0.87 -0.72,1.58 -1.61,1.58l-7.72,0c-0.89,0 -1.61,-0.71 -1.61,-1.58l0,-3.58c0,-0.87 0.72,-1.58 1.61,-1.58zm-0.35,5.16c0,0.19 0.16,0.35 0.35,0.35l7.72,0c0.19,0 0.35,-0.16 0.35,-0.35l0,-3.59c0,-0.19 -0.16,-0.34 -0.35,-0.34l-7.72,0c-0.19,0 -0.35,0.15 -0.35,0.34l0,3.59l0,0z" fill="#475467" id="svg_2" transform="matrix(1 0 0 1 0 0)"/>
  </g>
 </g>
</svg>